<svg width="32" height="32" viewBox="0 0 32 32" fill="none" xmlns="http://www.w3.org/2000/svg">
<g clip-path="url(#clip0_34_1082)">
<path d="M4.50098 31.9998C3.29898 31.9998 2.17311 31.5339 1.31955 30.6803C0.438488 29.7992 -0.0296365 28.6279 0.00148847 27.3823C0.0326134 26.1366 0.558612 24.9902 1.48261 24.1542L15.6472 11.3387C14.5276 8.28195 15.2738 4.79291 17.6033 2.46342C19.7216 0.345188 22.8424 -0.490181 25.7478 0.284001C26.0717 0.37025 26.3249 0.622874 26.4119 0.946621C26.4989 1.27031 26.4065 1.61587 26.1694 1.85287L22.8199 5.2024L23.4828 8.51719L26.7976 9.18013L30.1472 5.83059C30.3842 5.59353 30.7296 5.50103 31.0534 5.58809C31.3772 5.67509 31.6298 5.92828 31.7161 6.25221C32.4901 9.1575 31.6549 12.2783 29.5366 14.3966C27.2071 16.7263 23.7181 17.4723 20.6613 16.3527L7.84572 30.5172C7.00972 31.4412 5.86335 31.9673 4.61767 31.9984C4.57873 31.9993 4.53979 31.9998 4.50098 31.9998ZM23.4953 1.87518C21.8014 1.89543 20.1507 2.56792 18.9293 3.78935C16.988 5.73071 16.4602 8.70719 17.6162 11.1961C17.7893 11.5687 17.6996 12.0105 17.3949 12.2862L2.74067 25.5447C2.2013 26.0327 1.89423 26.7019 1.87605 27.4291C1.85786 28.1563 2.13111 28.8401 2.64548 29.3544C3.15986 29.8688 3.84348 30.1438 4.57079 30.1238C5.29798 30.1056 5.96723 29.7986 6.45523 29.2592L19.7138 14.605C19.9894 14.3004 20.4313 14.2107 20.8039 14.3837C23.2927 15.5398 26.2692 15.012 28.2106 13.0707C29.4319 11.8494 30.1044 10.1984 30.1248 8.50463L27.7687 10.8609C27.547 11.0826 27.2292 11.1787 26.9219 11.1173L22.5021 10.2334C22.131 10.1591 21.8409 9.86906 21.7667 9.49788L20.8828 5.07816C20.8213 4.77078 20.9175 4.45297 21.1391 4.23135L23.4953 1.87518Z" fill="white"/>
<path d="M4.6351 28.3022C5.15287 28.3022 5.5726 27.8825 5.5726 27.3647C5.5726 26.847 5.15287 26.4272 4.6351 26.4272C4.11733 26.4272 3.6976 26.847 3.6976 27.3647C3.6976 27.8825 4.11733 28.3022 4.6351 28.3022Z" fill="white"/>
</g>
<defs>
<clipPath id="clip0_34_1082">
<rect width="32" height="31.9998" fill="white"/>
</clipPath>
</defs>
</svg>
