<svg width="32" height="32" viewBox="0 0 32 32" fill="none" xmlns="http://www.w3.org/2000/svg">
<g clip-path="url(#clip0_34_1078)">
<path d="M16.4997 9.51694C16.1504 9.41301 15.9514 9.04553 16.0554 8.69627C16.7014 6.52612 18.7131 4.92529 21.1157 4.92529C21.48 4.92529 21.7755 5.22071 21.7755 5.58515C21.7755 5.9496 21.48 6.24502 21.1157 6.24502C19.3765 6.24502 17.8158 7.40782 17.3203 9.07265C17.2169 9.42027 16.8506 9.62133 16.4997 9.51694Z" fill="white"/>
<path d="M25.7347 22.0815H23.7551C23.3907 22.0815 23.0952 21.786 23.0952 21.4216C23.0952 21.0572 23.3907 20.7618 23.7551 20.7618H25.7347C28.2817 20.7618 30.3538 18.6897 30.3538 16.1427C30.3538 13.5958 28.2817 11.5237 25.7347 11.5237C25.7176 11.5203 25.4158 11.5583 25.1885 11.2961C25.0632 11.1516 25.0067 10.9597 25.0338 10.7703C25.061 10.5802 25.0748 10.3897 25.0748 10.204C25.0748 8.02089 23.2987 6.24481 21.1157 6.24481C20.2665 6.24481 19.4566 6.51021 18.7737 7.01229C18.4485 7.25116 17.9864 7.14519 17.7986 6.78748C16.7678 4.82466 14.7519 3.60537 12.5374 3.60537C8.80615 3.60537 5.96728 7.03394 6.71755 10.7326C6.80043 11.1405 6.48838 11.5237 6.07088 11.5237H5.93878C3.39177 11.5237 1.31973 13.5958 1.31973 16.1427C1.31973 18.6897 3.39177 20.7618 5.93878 20.7618H7.91837C8.28281 20.7618 8.57823 21.0572 8.57823 21.4216C8.57823 21.786 8.28281 22.0815 7.91837 22.0815H5.93878C2.66414 22.0815 0 19.4174 0 16.1427C0 13.0797 2.33057 10.5509 5.31171 10.2368C4.90853 5.97915 8.25807 2.28564 12.5374 2.28564C15.0045 2.28564 17.2698 3.52368 18.6053 5.55928C19.3725 5.14258 20.228 4.92509 21.1157 4.92509C24.0264 4.92509 26.3946 7.2932 26.3946 10.204C26.3946 10.2161 26.3945 10.2283 26.3944 10.2404C29.3597 10.5697 31.6735 13.0911 31.6735 16.1427C31.6735 19.4174 29.0093 22.0815 25.7347 22.0815Z" fill="white"/>
<path d="M15.8367 30.0001C11.1066 30.0001 7.25848 26.152 7.25848 21.4219C7.25848 16.6919 11.1066 12.8438 15.8367 12.8438C20.5668 12.8438 24.415 16.6919 24.415 21.4219C24.415 26.152 20.5668 30.0001 15.8367 30.0001ZM15.8367 14.1635C11.8344 14.1635 8.57821 17.4196 8.57821 21.4219C8.57821 25.4243 11.8344 28.6804 15.8367 28.6804C19.8391 28.6804 23.0952 25.4243 23.0952 21.4219C23.0952 17.4196 19.8391 14.1635 15.8367 14.1635Z" fill="white"/>
<path d="M15.8368 26.7006C15.4723 26.7006 15.1769 26.4052 15.1769 26.0408V17.4626C15.1769 17.0982 15.4723 16.8027 15.8368 16.8027C16.2012 16.8027 16.4966 17.0982 16.4966 17.4626V26.0408C16.4966 26.4052 16.2012 26.7006 15.8368 26.7006Z" fill="white"/>
<path d="M18.4762 20.7619C18.3073 20.7619 18.1385 20.6975 18.0097 20.5687L15.8368 18.3958L13.6639 20.5687C13.4062 20.8263 12.9885 20.8263 12.7307 20.5687C12.473 20.311 12.473 19.8932 12.7307 19.6354L15.3701 16.996C15.6279 16.7383 16.0456 16.7383 16.3034 16.996L18.9428 19.6354C19.2005 19.8931 19.2005 20.3109 18.9428 20.5687C18.814 20.6975 18.6452 20.7619 18.4762 20.7619Z" fill="white"/>
</g>
<defs>
<clipPath id="clip0_34_1078">
<rect width="32" height="31.9998" fill="white"/>
</clipPath>
</defs>
</svg>
