<svg width="32" height="32" viewBox="0 0 32 32" fill="none" xmlns="http://www.w3.org/2000/svg">
<g clip-path="url(#clip0_34_1083)">
<path d="M29.5273 0H8.4849C7.95015 0 7.51508 0.434998 7.51508 0.969745V2.00399H6.48083C5.94608 2.00399 5.51108 2.43899 5.51108 2.97374V16.0322H3.47483C2.38758 16.0322 1.50308 16.9167 1.50308 18.0039V27.0221C1.50308 28.1093 2.38758 28.9938 3.47483 28.9938H5.51114V31.0301C5.51114 31.5648 5.94615 31.9998 6.4809 31.9998H27.5233C28.058 31.9998 28.493 31.5648 28.493 31.0301V29.9959H29.5273C30.062 29.9959 30.497 29.5609 30.497 29.0261V0.969745C30.497 0.434998 30.062 0 29.5273 0ZM3.47483 28.0563C2.90452 28.0563 2.44058 27.5924 2.44058 27.0221V19.6821C2.74146 19.8682 3.09577 19.9757 3.47483 19.9757H22.0121C22.3062 19.9757 22.5454 20.215 22.5454 20.509V27.5231C22.5454 27.8171 22.3061 28.0563 22.0121 28.0563H3.47483ZM29.5595 29.0261C29.5595 29.0439 29.5451 29.0583 29.5273 29.0583H28.493V28.5251C28.493 28.2662 28.2831 28.0563 28.0243 28.0563C27.7654 28.0563 27.5555 28.2662 27.5555 28.5251V31.0301C27.5555 31.0479 27.5411 31.0624 27.5233 31.0624H6.48083C6.46302 31.0624 6.44858 31.0479 6.44858 31.0301V28.9938H22.0121C22.8231 28.9938 23.4828 28.334 23.4828 27.5231V20.509C23.4828 19.698 22.823 19.0382 22.0121 19.0382H3.47483C2.90452 19.0382 2.44058 18.5743 2.44058 18.004C2.44058 17.4337 2.90452 16.9697 3.47483 16.9697H5.51114V17.503C5.51114 17.7619 5.72102 17.9717 5.97989 17.9717C6.23877 17.9717 6.44864 17.7619 6.44864 17.503V2.9738C6.44864 2.95599 6.46308 2.94155 6.4809 2.94155H22.0444V6.98184C22.0444 7.79284 22.7042 8.45259 23.5151 8.45259H27.5555V26.5211C27.5555 26.7799 27.7654 26.9898 28.0243 26.9898C28.2831 26.9898 28.493 26.7799 28.493 26.5211V7.8979C28.493 7.50503 28.34 7.13572 28.0622 6.8579L23.6391 2.4348C23.3613 2.15699 22.992 2.00399 22.5991 2.00399H8.45265V0.969745C8.45265 0.951933 8.46715 0.937496 8.48496 0.937496H29.5273C29.5451 0.937496 29.5595 0.951933 29.5595 0.969745V29.0261ZM22.9818 6.98178V3.10342L27.3935 7.51509H23.5151C23.2211 7.51509 22.9818 7.27584 22.9818 6.98178Z" fill="white"/>
<path d="M17.7585 21.543C17.757 21.543 17.7555 21.543 17.7539 21.543C17.495 21.5455 17.2872 21.7573 17.2897 22.0162L17.3144 24.564L15.373 21.7528C15.2565 21.584 15.0437 21.5106 14.8478 21.5717C14.652 21.6328 14.5186 21.8141 14.5186 22.0192V26.0198C14.5186 26.2786 14.7285 26.4885 14.9873 26.4885C15.2462 26.4885 15.4561 26.2786 15.4561 26.0198V23.5229L17.3066 26.2026C17.4456 26.4034 17.677 26.4892 17.8961 26.4206C18.1201 26.3507 18.2647 26.1404 18.2646 25.8801L18.2271 22.0072C18.2246 21.7498 18.0153 21.543 17.7585 21.543Z" fill="white"/>
<path d="M12.8867 21.543C12.6278 21.543 12.418 21.7528 12.418 22.0117V26.0198C12.418 26.2786 12.6278 26.4885 12.8867 26.4885C13.1456 26.4885 13.3555 26.2786 13.3555 26.0198V22.0117C13.3555 21.7528 13.1456 21.543 12.8867 21.543Z" fill="white"/>
<path d="M10.8161 23.714C10.9674 23.4914 11.056 23.2228 11.056 22.934C11.056 22.167 10.432 21.543 9.66501 21.543H8.50076C8.24189 21.543 8.03201 21.7528 8.03201 22.0117V26.0198C8.03201 26.1444 8.0817 26.264 8.17001 26.3519C8.25789 26.4394 8.37683 26.4885 8.50076 26.4885H8.50283C8.50289 26.4885 9.57326 26.4838 9.86833 26.4838C10.7217 26.4838 11.416 25.7895 11.416 24.9361C11.416 24.4397 11.1807 23.9974 10.8161 23.714ZM8.96951 22.4805H9.66501C9.91508 22.4805 10.1185 22.6839 10.1185 22.934C10.1185 23.184 9.91508 23.3875 9.66501 23.3875C9.5802 23.3875 8.96951 23.3885 8.96951 23.3885V22.4805ZM9.86833 25.5463C9.70345 25.5463 9.29701 25.5478 8.96951 25.5491V24.3271C9.06058 24.3268 9.86833 24.3261 9.86833 24.3261C10.2048 24.3261 10.4785 24.5998 10.4785 24.9362C10.4785 25.2726 10.2048 25.5463 9.86833 25.5463Z" fill="white"/>
<path d="M6.50177 25.5513H6.49671C6.23783 25.5513 6.03046 25.7611 6.03046 26.02C6.03046 26.2789 6.24283 26.4888 6.50177 26.4888C6.76071 26.4888 6.97052 26.2789 6.97052 26.02C6.97052 25.7611 6.76064 25.5513 6.50177 25.5513Z" fill="white"/>
<path d="M12.2397 10.0415H12.3345V12.2094C12.3345 12.4683 12.5443 12.6782 12.8032 12.6782C13.0621 12.6782 13.272 12.4683 13.272 12.2094V9.57275C13.272 9.31388 13.0621 9.104 12.8032 9.104H12.2397C11.9808 9.104 11.7709 9.31388 11.7709 9.57275C11.7709 9.83163 11.9808 10.0415 12.2397 10.0415Z" fill="white"/>
<path d="M15.7034 13.5312H15.1398C14.881 13.5312 14.6711 13.7411 14.6711 14C14.6711 14.2589 14.881 14.4687 15.1398 14.4687H15.2346V16.6367C15.2346 16.8955 15.4445 17.1054 15.7034 17.1054C15.9623 17.1054 16.1721 16.8955 16.1721 16.6367V14C16.1721 13.7411 15.9623 13.5312 15.7034 13.5312Z" fill="white"/>
<path d="M15.1385 9.05029C14.4596 9.05029 13.9073 9.6026 13.9073 10.2815V11.5009C13.9073 12.1798 14.4596 12.7321 15.1385 12.7321C15.8174 12.7321 16.3697 12.1798 16.3697 11.5009V10.2815C16.3698 9.6026 15.8174 9.05029 15.1385 9.05029ZM15.4323 11.5009C15.4323 11.6628 15.3005 11.7946 15.1386 11.7946C14.9766 11.7946 14.8448 11.6628 14.8448 11.5009V10.2815C14.8448 10.1196 14.9766 9.98779 15.1386 9.98779C15.3006 9.98779 15.4323 10.1195 15.4323 10.2815V11.5009Z" fill="white"/>
<path d="M17.8621 9.104H17.2986C17.0397 9.104 16.8298 9.31388 16.8298 9.57275C16.8298 9.83163 17.0397 10.0415 17.2986 10.0415H17.3934V12.2094C17.3934 12.4683 17.6033 12.6782 17.8621 12.6782C18.121 12.6782 18.3309 12.4683 18.3309 12.2094V9.57275C18.3309 9.31388 18.121 9.104 17.8621 9.104Z" fill="white"/>
<path d="M17.8621 13.5312H17.2986C17.0397 13.5312 16.8298 13.7411 16.8298 14C16.8298 14.2589 17.0397 14.4687 17.2986 14.4687H17.3934V16.6367C17.3934 16.8955 17.6033 17.1054 17.8621 17.1054C18.121 17.1054 18.3309 16.8955 18.3309 16.6367V14C18.3309 13.7411 18.121 13.5312 17.8621 13.5312Z" fill="white"/>
<path d="M20.2643 9.05029C19.5855 9.05029 19.0331 9.6026 19.0331 10.2815V11.5009C19.0331 12.1798 19.5854 12.7321 20.2643 12.7321C20.9433 12.7321 21.4955 12.1798 21.4955 11.5009V10.2815C21.4956 9.6026 20.9433 9.05029 20.2643 9.05029ZM20.5581 11.5009C20.5581 11.6628 20.4263 11.7946 20.2644 11.7946C20.1025 11.7946 19.9706 11.6628 19.9706 11.5009V10.2815C19.9706 10.1196 20.1024 9.98779 20.2644 9.98779C20.4264 9.98779 20.5581 10.1195 20.5581 10.2815V11.5009Z" fill="white"/>
<path d="M20.2643 13.4775C19.5855 13.4775 19.0331 14.0298 19.0331 14.7087V15.9281C19.0331 16.607 19.5854 17.1593 20.2643 17.1593C20.9433 17.1593 21.4955 16.607 21.4955 15.9281V14.7087C21.4956 14.0298 20.9433 13.4775 20.2643 13.4775ZM20.5581 15.9281C20.5581 16.09 20.4263 16.2218 20.2644 16.2218C20.1025 16.2218 19.9706 16.0901 19.9706 15.9281V14.7087C19.9706 14.5468 20.1024 14.415 20.2644 14.415C20.4264 14.415 20.5581 14.5468 20.5581 14.7087V15.9281Z" fill="white"/>
<path d="M12.8668 13.4775C12.1879 13.4775 11.6356 14.0298 11.6356 14.7087V15.9281C11.6356 16.607 12.1879 17.1593 12.8668 17.1593C13.5457 17.1593 14.098 16.607 14.098 15.9281V14.7087C14.098 14.0298 13.5457 13.4775 12.8668 13.4775ZM13.1605 15.9281C13.1605 16.09 13.0288 16.2218 12.8668 16.2218C12.7048 16.2218 12.5731 16.0901 12.5731 15.9281V14.7087C12.5731 14.5468 12.7048 14.415 12.8668 14.415C13.0287 14.415 13.1605 14.5468 13.1605 14.7087V15.9281Z" fill="white"/>
</g>
<defs>
<clipPath id="clip0_34_1083">
<rect width="32" height="31.9998" fill="white"/>
</clipPath>
</defs>
</svg>
