<svg width="32" height="32" viewBox="0 0 32 32" fill="none" xmlns="http://www.w3.org/2000/svg">
<g clip-path="url(#clip0_34_1079)">
<path d="M26.8718 12.6721L8.66725 0.555564C7.55932 -0.181933 6.23632 -0.181933 5.12825 0.555564C4.05532 1.26969 3.43994 2.48268 3.43994 3.88336V15.9999V28.1165C3.43994 29.5172 4.05532 30.7301 5.12825 31.4443C5.68232 31.813 6.28994 31.9975 6.89782 31.9975C7.5055 31.9975 8.11338 31.813 8.66732 31.4443L26.8718 19.3277C27.9448 18.6135 28.5601 17.4006 28.5601 15.9999C28.5601 14.5992 27.9448 13.3863 26.8718 12.6721ZM26.0406 18.0791L7.83613 30.1957C7.23094 30.5984 6.56444 30.5984 5.95938 30.1957C5.3115 29.7644 4.93988 29.0066 4.93988 28.1165V15.9999V3.88336C4.93988 2.9933 5.31144 2.23549 5.95938 1.80418C6.262 1.60281 6.57982 1.50212 6.89782 1.50212C7.21569 1.50212 7.53363 1.60281 7.83619 1.80418L26.0406 13.9208C26.6886 14.352 27.0601 15.1098 27.0601 15.9999C27.0601 16.89 26.6886 17.6478 26.0406 18.0791Z" fill="white"/>
</g>
<defs>
<clipPath id="clip0_34_1079">
<rect width="32" height="31.9998" fill="white"/>
</clipPath>
</defs>
</svg>
