<svg width="32" height="32" viewBox="0 0 32 32" fill="none" xmlns="http://www.w3.org/2000/svg">
<path d="M30.3333 15.9998C30.3333 23.9033 23.9036 30.333 16 30.333C8.09641 30.333 1.66667 23.9033 1.66667 15.9998C1.66667 15.4476 2.11454 14.9998 2.66667 14.9998C3.21881 14.9998 3.66667 15.4476 3.66667 15.9998C3.66667 22.8005 9.19921 28.333 16 28.333C22.8008 28.333 28.3333 22.8005 28.3333 15.9998C28.3333 9.199 22.8008 3.66649 16 3.66649C12.78 3.66649 9.7148 4.95462 7.43987 7.15994H10.5599C11.112 7.15994 11.5599 7.60781 11.5599 8.15994C11.5599 8.71207 11.112 9.15994 10.5599 9.15994H5.22654C4.67441 9.15994 4.22654 8.71207 4.22654 8.15994V2.82663C4.22654 2.2745 4.67441 1.82664 5.22654 1.82664C5.77867 1.82664 6.22654 2.2745 6.22654 2.82663V5.57382C8.85001 3.1057 12.3363 1.6665 16 1.6665C23.9036 1.6665 30.3333 8.09621 30.3333 15.9998Z" fill="white"/>
</svg>
