<svg width="32" height="32" viewBox="0 0 32 32" fill="none" xmlns="http://www.w3.org/2000/svg">
<path d="M21 17.3333C21 16.781 20.5523 16.3333 20 16.3333H12C11.4477 16.3333 11 16.781 11 17.3333C11 17.8856 11.4477 18.3333 12 18.3333H20C20.5523 18.3333 21 17.8856 21 17.3333Z" fill="white"/>
<path d="M21 22.6667C21 22.1144 20.5523 21.6667 20 21.6667H12C11.4477 21.6667 11 22.1144 11 22.6667C11 23.219 11.4477 23.6667 12 23.6667H20C20.5523 23.6667 21 23.219 21 22.6667Z" fill="white"/>
<path fill-rule="evenodd" clip-rule="evenodd" d="M9.33332 3C7.30828 3 5.66665 4.64162 5.66665 6.66667V25.3333C5.66665 27.3584 7.30827 29 9.33332 29H22.6667C24.6917 29 26.3333 27.3584 26.3333 25.3333V10.6235C26.3333 10.1158 26.1677 9.62201 25.8617 9.21693L21.8646 3.92672C21.4236 3.34306 20.7345 3 20.0029 3H9.33332ZM7.66665 6.66667C7.66665 5.74619 8.41284 5 9.33332 5H19V10.8627C19 11.415 19.4477 11.8627 20 11.8627H24.3333V25.3333C24.3333 26.2538 23.5871 27 22.6667 27H9.33332C8.41284 27 7.66665 26.2538 7.66665 25.3333V6.66667Z" fill="white"/>
</svg>
