<svg width="32" height="32" viewBox="0 0 32 32" fill="none" xmlns="http://www.w3.org/2000/svg">
<mask id="mask0_34_1075" style="mask-type:alpha" maskUnits="userSpaceOnUse" x="0" y="0" width="32" height="32">
<rect width="32" height="32" fill="#D9D9D9"/>
</mask>
<g mask="url(#mask0_34_1075)">
<path d="M5.34048 30.8572V28.5715H21.4558C23.76 28.5715 25.7232 27.7583 27.3453 26.132C28.9673 24.5056 29.7784 22.5202 29.7784 20.1759C29.7784 17.8317 28.9673 15.8536 27.3453 14.2419C25.7232 12.6302 23.76 11.8243 21.4558 11.8243H4.25532L10.8433 18.6023L9.27104 20.2199L1.52588e-05 10.6815L9.27104 1.14307L10.8433 2.76066L4.25532 9.53863H21.4558C24.3639 9.53863 26.8482 10.5701 28.909 12.6331C30.9697 14.6961 32 17.2104 32 20.1759C32 23.1415 30.9697 25.6631 28.909 27.7408C26.8482 29.8184 24.3639 30.8572 21.4558 30.8572H5.34048Z" fill="white"/>
</g>
</svg>
