<svg width="32" height="32" viewBox="0 0 32 32" fill="none" xmlns="http://www.w3.org/2000/svg">
<mask id="mask0_191_2830" style="mask-type:alpha" maskUnits="userSpaceOnUse" x="0" y="0" width="32" height="32">
<rect width="32" height="32" fill="#D9D9D9"/>
</mask>
<g mask="url(#mask0_191_2830)">
<path d="M9.46667 24.3998C8.95121 24.9153 8.11547 24.9153 7.60001 24.3998C7.08454 23.8844 7.08454 23.0486 7.60001 22.5332L14.1333 15.9998L7.60001 9.46651C7.08454 8.95104 7.08454 8.1153 7.60001 7.59984C8.11547 7.08437 8.95121 7.08437 9.46667 7.59984L16 14.1332L22.5333 7.59984C23.0488 7.08437 23.8845 7.08437 24.4 7.59984C24.9155 8.1153 24.9155 8.95104 24.4 9.4665L17.8667 15.9998L24.4 22.5332C24.9155 23.0486 24.9155 23.8844 24.4 24.3998C23.8845 24.9153 23.0488 24.9153 22.5333 24.3998L16 17.8665L9.46667 24.3998Z" fill="white"/>
</g>
</svg>
