<svg width="32" height="32" viewBox="0 0 32 32" fill="none" xmlns="http://www.w3.org/2000/svg">
<mask id="mask0_96_53995" style="mask-type:alpha" maskUnits="userSpaceOnUse" x="0" y="0" width="32" height="32">
<rect width="32" height="32" fill="#D9D9D9"/>
</mask>
<g mask="url(#mask0_96_53995)">
<path d="M5.33332 25.3331H11.1154V14.6665H5.33332V25.3331ZM13.1153 25.3331H18.8846V6.66647H13.1153V25.3331ZM20.8846 25.3331H26.6667V17.3331H20.8846V25.3331ZM4.93335 27.3331C4.04969 27.3331 3.33335 26.6168 3.33335 25.7331V14.2665C3.33335 13.3829 4.04969 12.6665 4.93335 12.6665H11.1154V6.2665C11.1154 5.38285 11.8318 4.6665 12.7154 4.6665H19.2846C20.1682 4.6665 20.8846 5.38285 20.8846 6.2665V15.3332H27.0666C27.9503 15.3332 28.6666 16.0495 28.6666 16.9332V25.7331C28.6666 26.6168 27.9503 27.3331 27.0666 27.3331H4.93335Z" fill="white"/>
</g>
</svg>
