<svg width="32" height="32" viewBox="0 0 32 32" fill="none" xmlns="http://www.w3.org/2000/svg">
<g clip-path="url(#clip0_34_1076)">
<path d="M16 0C7.15681 0 0 7.15597 0 15.9999C0 24.8429 7.156 31.9998 16 31.9998C24.8432 31.9998 32 24.8439 32 15.9999C32 7.15678 24.844 0 16 0ZM16 29.7673C8.40862 29.7673 2.23256 23.5913 2.23256 15.9999C2.23256 8.40852 8.40862 2.23255 16 2.23255C23.5914 2.23255 29.7674 8.40852 29.7674 15.9999C29.7674 23.5913 23.5914 29.7673 16 29.7673Z" fill="white"/>
<path d="M15.5266 20.2451C14.642 20.2451 13.9259 20.9822 13.9259 21.8667C13.9259 22.7303 14.6209 23.4885 15.5266 23.4885C16.4322 23.4885 17.1482 22.7303 17.1482 21.8667C17.1482 20.9822 16.4111 20.2451 15.5266 20.2451Z" fill="white"/>
<path d="M15.8003 7.9668C12.9571 7.9668 11.6513 9.65173 11.6513 10.789C11.6513 11.6103 12.3463 11.9895 12.9149 11.9895C14.0522 11.9895 13.5889 10.3677 15.7371 10.3677C16.7901 10.3677 17.6326 10.8311 17.6326 11.7999C17.6326 12.9371 16.4532 13.59 15.7582 14.1797C15.1474 14.7061 14.3471 15.5697 14.3471 17.3809C14.3471 18.4761 14.642 18.792 15.5054 18.792C16.5374 18.792 16.748 18.3287 16.748 17.9284C16.748 16.8333 16.7691 16.2015 17.9274 15.2959C18.4961 14.8536 20.2862 13.4215 20.2862 11.4418C20.2862 9.4621 18.4961 7.9668 15.8003 7.9668Z" fill="white"/>
</g>
<defs>
<clipPath id="clip0_34_1076">
<rect width="32" height="31.9998" fill="white"/>
</clipPath>
</defs>
</svg>
