<svg width="32" height="32" viewBox="0 0 32 32" fill="none" xmlns="http://www.w3.org/2000/svg">
<g clip-path="url(#clip0_34_1081)">
<path fill-rule="evenodd" clip-rule="evenodd" d="M27.1823 31.9983H4.81499C3.16417 31.9983 1.81793 30.6547 1.81793 29.0012V10.7689C1.81793 9.79254 2.61208 8.99566 3.59122 8.99566H6.17422V4.05874C6.17422 1.82203 7.9943 0.00195312 10.2311 0.00195312H21.7689C24.0057 0.00195312 25.8258 1.82203 25.8258 4.05874V12.7479H27.185C28.8358 12.7479 30.182 14.0915 30.182 15.745V29.0039C30.1794 30.6547 28.8358 31.9983 27.1823 31.9983ZM22.3704 10.9981H13.498L14.564 12.7479H24.9509V4.05874C24.9509 2.30377 23.5239 0.876853 21.7663 0.876853H10.2311C8.47605 0.876853 7.04912 2.30377 7.04912 4.05874V8.99566H11.5096C12.3121 8.99566 12.6744 9.56783 12.9834 10.1231H22.3704C22.9467 10.1231 22.9465 10.9981 22.3704 10.9981ZM22.3704 8.18329H9.62696C9.05073 8.18329 9.05073 7.30831 9.62696 7.30831H22.3704C22.9467 7.30831 22.9465 8.18329 22.3704 8.18329ZM22.3704 5.36592H9.62696C9.05073 5.36592 9.05073 4.49095 9.62696 4.49095H22.3704C22.9467 4.49095 22.9465 5.36592 22.3704 5.36592ZM25.3883 13.6228L14.3165 13.6202C14.1629 13.6202 14.0223 13.5394 13.9441 13.4092C13.4198 12.5425 12.7347 11.4816 12.2621 10.6231C11.9626 10.0763 11.822 9.87056 11.5122 9.87056H3.59114V9.87322C3.09641 9.87322 2.69276 10.2768 2.69276 10.7715V29.0038C2.69276 30.1729 3.64318 31.1259 4.81491 31.1259L27.1823 31.126C28.3515 31.126 29.3045 30.1756 29.3045 29.0039L29.3046 15.7423C29.3046 14.5732 28.3541 13.6202 27.1824 13.6202L25.3883 13.6228Z" fill="white"/>
</g>
<defs>
<clipPath id="clip0_34_1081">
<rect width="32" height="31.9998" fill="white"/>
</clipPath>
</defs>
</svg>
