<svg width="32" height="32" viewBox="0 0 32 32" fill="none" xmlns="http://www.w3.org/2000/svg">
<mask id="mask0_34_1077" style="mask-type:alpha" maskUnits="userSpaceOnUse" x="0" y="0" width="32" height="32">
<rect width="32" height="32" fill="#D9D9D9"/>
</mask>
<g mask="url(#mask0_34_1077)">
<path d="M10.5442 30.8572C7.63613 30.8572 5.15176 29.8184 3.09105 27.7408C1.03034 25.6631 -1.52588e-05 23.1415 -1.52588e-05 20.1759C-1.52588e-05 17.2104 1.03034 14.6961 3.09105 12.6331C5.15176 10.5701 7.63613 9.53863 10.5442 9.53863H27.7447L21.1567 2.76066L22.729 1.14307L32 10.6815L22.729 20.2199L21.1567 18.6023L27.7447 11.8243H10.5442C8.23997 11.8243 6.27682 12.6302 4.65474 14.2419C3.03266 15.8536 2.22161 17.8317 2.22161 20.1759C2.22161 22.5202 3.03266 24.5056 4.65474 26.132C6.27682 27.7583 8.23997 28.5715 10.5442 28.5715H26.6595V30.8572H10.5442Z" fill="white"/>
</g>
</svg>
